<?xml version="1.0" encoding="iso-8859-1"?>
<!-- Generator: Adobe Illustrator 16.0.0, SVG Export Plug-In . SVG Version: 6.00 Build 0)  -->
<!DOCTYPE svg PUBLIC "-//W3C//DTD SVG 1.1//EN" "http://www.w3.org/Graphics/SVG/1.1/DTD/svg11.dtd">
<svg version="1.1" id="Capa_1" xmlns="http://www.w3.org/2000/svg" xmlns:xlink="http://www.w3.org/1999/xlink" x="0px" y="0px"
	 width="612px" height="612px" viewBox="0 0 612 612" style="enable-background:new 0 0 612 612;" xml:space="preserve">
<g>
	<g>
		<g id="group-25svg">
			<path id="path-1_18_" d="M360.887,612h-204c-49.446,0-84.029-40.538-84.029-92.286V92.286C72.857,40.538,107.44,0,156.886,0
				H438.6c52.254,0,100.543,42.267,100.543,92.286v310.187c0,3.361-3.244,6.615-5.361,9.229L373.203,606.657
				C370.436,610.038,365.268,612,360.887,612z M156.886,29.143c-33.65,0-54.886,27.142-54.886,63.143v427.428
				c0,36.002,21.235,63.144,54.886,63.144h197.092L510,397.266V92.286c0-33.641-35.572-63.143-71.4-63.143H156.886z"/>
			<path id="path-2_18_" d="M364.996,609.911c-1.594,0-1.127-0.252-2.682-0.796c-5.867-2.03-7.742-7.559-7.742-13.775V456.377
				c0-27.481,17.582-58.091,48.775-58.091h104.691c5.574,0,10.656,3.176,13.094,8.198c2.439,5.003,1.807,10.978-1.631,15.368
				L376.469,604.336C373.65,607.92,369.387,609.911,364.996,609.911z M403.348,427.429c-13.174,0-19.633,15.844-19.633,28.948
				v96.755L478.1,427.429H403.348z"/>
			<path id="path-3_18_" d="M400.15,369.677c-42.945,0-77.879-34.942-77.879-77.898c0-42.957,34.934-77.889,77.879-77.889
				c42.957,0,77.9,34.933,77.9,77.889C478.051,334.734,443.107,369.677,400.15,369.677z M400.15,243.032
				c-26.869,0-48.736,21.857-48.736,48.746c0,26.889,21.867,48.756,48.736,48.756c26.891,0,48.758-21.867,48.758-48.756
				C448.908,264.889,427.041,243.032,400.15,243.032z"/>
			<path id="path-4_11_" d="M395.207,262.256c1.787,7.286,3.244,14.572,4.594,21.867c1.535,7.286,1.885,14.571,3.828,21.857
				l-9.395-9.384c4.645-1.214,9.277-0.787,13.912,0.651c4.643,1.457,9.287,3.555,13.92,7.762c0.535,0.495,0.574,1.321,0.088,1.865
				c-0.029,0.029-0.059,0.059-0.088,0.088c-4.633,4.206-9.277,6.305-13.92,7.762c-4.635,1.438-9.268,1.865-13.912,0.66l-0.32-1.214
				c-3.574-0.933-10.199-4.575-0.484-8.15v-0.039c0-7.286-2.002-14.571-0.467-21.857c1.35-7.295,0.66-14.581,2.447-21.867
				c0.137-0.544-0.398-0.864,0.137-0.738C395.926,261.615,395.119,261.907,395.207,262.256z"/>
		</g>
	</g>
</g>
<g>
</g>
<g>
</g>
<g>
</g>
<g>
</g>
<g>
</g>
<g>
</g>
<g>
</g>
<g>
</g>
<g>
</g>
<g>
</g>
<g>
</g>
<g>
</g>
<g>
</g>
<g>
</g>
<g>
</g>
</svg>
